# xmcd
# 
# Track frame offsets:
#     150
#     11842
#     24260
#     36745
#     49538
#     66488
#     77838
#     87831
#     98648
#     108706
#     120077
#     128448
#     142468
#     155460
#     169217
#     190538
#     205293
#     218076
#     233026
#     248591
#     265979
# 
# Disc length: 3764
# 
# Revision: 3
# Processed by: cddbd v1.5.2PL0 Copyright (c) Steve Scherf et al.
# Submitted via: fre:ac v1.0.31
# 
DISCID=200eb215
DTITLE=Johnny Cash - Ring Of Fire - The Legend Of Johnny Cash
DYEAR=2005
DGENRE=Blues
TTITLE0=Ring of fire
TTITLE1=I walk the line
TTITLE2=Jackson
TTITLE3=Folsom prison blues
TTITLE4=A boy named Sue (Live)
TTITLE5=Big river
TTITLE6=Get rhythm
TTITLE7=Cry! Cry! Cry!
TTITLE8=Hey porter
TTITLE9=A thing called love
TTITLE10=Guess things happen that way
TTITLE11=San Quentin (Live)
TTITLE12=Man in black
TTITLE13=Highwayman
TTITLE14=The wanderer (U2 starring Johnny Cash)
TTITLE15=I've been everywhere
TTITLE16=Rusty cage
TTITLE17=Personal Jesus
TTITLE18=Give my love to Rose
TTITLE19=One
TTITLE20=Hurt
EXTD=
EXTT0=
EXTT1=
EXTT2=
EXTT3=
EXTT4=
EXTT5=
EXTT6=
EXTT7=
EXTT8=
EXTT9=
EXTT10=
EXTT11=
EXTT12=
EXTT13=
EXTT14=
EXTT15=
EXTT16=
EXTT17=
EXTT18=
EXTT19=
EXTT20=
PLAYORDER=
